<?xml version="1.0" encoding="utf-8"?>
<!-- Generator: Adobe Illustrator 26.1.0, SVG Export Plug-In . SVG Version: 6.00 Build 0)  -->
<svg version="1.1" id="Слой_1" xmlns="http://www.w3.org/2000/svg" xmlns:xlink="http://www.w3.org/1999/xlink" x="0px" y="0px"
	 viewBox="0 0 24 24" style="enable-background:new 0 0 24 24;" xml:space="preserve">
<g>
	<path d="M19,22H5c-1.7,0-3-1.3-3-3V5c0-1.7,1.3-3,3-3h14c1.7,0,3,1.3,3,3v14C22,20.7,20.7,22,19,22z M5,4C4.4,4,4,4.4,4,5v14
		c0,0.6,0.4,1,1,1h14c0.6,0,1-0.4,1-1V5c0-0.6-0.4-1-1-1H5z"/>
</g>
<g>
	<path d="M16,13H8c-0.6,0-1-0.4-1-1s0.4-1,1-1h8c0.6,0,1,0.4,1,1S16.6,13,16,13z"/>
</g>
<g>
	<path d="M12,17c-0.1,0-0.3,0-0.4-0.1c-0.1,0-0.2-0.1-0.3-0.2C11.1,16.5,11,16.3,11,16c0-0.1,0-0.3,0.1-0.4c0.1-0.1,0.1-0.2,0.2-0.3
		c0.1-0.1,0.2-0.2,0.3-0.2c0.2-0.1,0.5-0.1,0.8,0c0.1,0,0.2,0.1,0.3,0.2c0.1,0.1,0.2,0.2,0.2,0.3c0,0.1,0.1,0.2,0.1,0.4
		c0,0.3-0.1,0.5-0.3,0.7C12.5,16.9,12.3,17,12,17z"/>
</g>
<g>
	<path d="M12,9c-0.1,0-0.3,0-0.4-0.1c-0.1-0.1-0.2-0.1-0.3-0.2C11.1,8.5,11,8.3,11,8c0-0.1,0-0.1,0-0.2c0-0.1,0-0.1,0.1-0.2
		c0-0.1,0.1-0.1,0.1-0.2c0-0.1,0.1-0.1,0.1-0.1c0.1-0.1,0.2-0.2,0.3-0.2C12,6.9,12.4,7,12.7,7.3c0,0,0.1,0.1,0.1,0.1
		c0,0.1,0.1,0.1,0.1,0.2c0,0.1,0,0.1,0.1,0.2c0,0.1,0,0.1,0,0.2c0,0.3-0.1,0.5-0.3,0.7c-0.1,0-0.1,0.1-0.1,0.1
		c-0.1,0-0.1,0.1-0.2,0.1c-0.1,0-0.1,0-0.2,0.1C12.1,9,12.1,9,12,9z"/>
</g>
</svg>
