<?xml version="1.0" encoding="utf-8"?>
<!-- Generator: Adobe Illustrator 26.1.0, SVG Export Plug-In . SVG Version: 6.00 Build 0)  -->
<svg version="1.1" id="Слой_1" xmlns="http://www.w3.org/2000/svg" xmlns:xlink="http://www.w3.org/1999/xlink" x="0px" y="0px"
	 viewBox="0 0 24 24" style="enable-background:new 0 0 24 24;" xml:space="preserve">
<g>
	<path d="M12,23C5.9,23,1,18.1,1,12S5.9,1,12,1s11,4.9,11,11S18.1,23,12,23z M12,3c-5,0-9,4-9,9c0,5,4,9,9,9c5,0,9-4,9-9
		C21,7,17,3,12,3z"/>
</g>
<g>
	<path d="M16.6,21.5c-0.5,0-0.9-0.3-1-0.8c-0.7-2.9-1.3-5.1-2.1-7.1c-0.1,0-0.3,0.1-0.4,0.1c-2.5,0.9-4.8,2.8-7,6
		c-0.3,0.5-0.9,0.6-1.4,0.2c-0.5-0.3-0.6-0.9-0.2-1.4c2.4-3.5,5-5.7,7.9-6.7c0.1,0,0.2-0.1,0.4-0.1c-0.2-0.4-0.3-0.8-0.5-1.2
		c-2.9,0.9-6.3,1.2-10,1.3c-0.6,0-1-0.4-1-1c0-0.6,0.4-1,1-1C6,9.9,8.9,9.5,11.4,8.8c-1-1.7-2.1-3.4-3.6-5.5C7.4,2.9,7.5,2.3,8,1.9
		C8.4,1.6,9,1.7,9.4,2.2c1.6,2.2,2.9,4.1,3.9,6c2.1-0.9,3.7-2.1,5.1-3.7c0.4-0.4,1-0.5,1.4-0.1c0.4,0.4,0.5,1,0.1,1.4
		c-1.6,1.9-3.5,3.3-5.7,4.2c0.2,0.5,0.4,0.9,0.6,1.4c2.2-0.3,4.7-0.1,7.2,0.5c0.5,0.1,0.9,0.7,0.7,1.2c-0.1,0.5-0.7,0.8-1.2,0.7
		c-2.1-0.6-4.1-0.7-5.9-0.6c0.7,2,1.3,4.2,2,7c0.1,0.5-0.2,1.1-0.7,1.2C16.7,21.5,16.7,21.5,16.6,21.5z"/>
</g>
</svg>
