<?xml version="1.0" encoding="utf-8"?>
<!-- Generator: Adobe Illustrator 26.1.0, SVG Export Plug-In . SVG Version: 6.00 Build 0)  -->
<svg version="1.1" id="Слой_1" xmlns="http://www.w3.org/2000/svg" xmlns:xlink="http://www.w3.org/1999/xlink" x="0px" y="0px"
	 viewBox="0 0 24 24" style="enable-background:new 0 0 24 24;" xml:space="preserve">
<g>
	<path d="M19,22H5c-1.7,0-3-1.3-3-3V5c0-1.7,1.3-3,3-3h14c1.7,0,3,1.3,3,3v14C22,20.7,20.7,22,19,22z M10,20h9c0.6,0,1-0.4,1-1v-9
		H10V20z M4,10v9c0,0.6,0.4,1,1,1h3V10H4z M10,8h10V5c0-0.6-0.4-1-1-1h-9V8z M4,8h4V4H5C4.4,4,4,4.4,4,5V8z"/>
</g>
</svg>
