<?xml version="1.0" encoding="utf-8"?>
<!-- Generator: Adobe Illustrator 26.1.0, SVG Export Plug-In . SVG Version: 6.00 Build 0)  -->
<svg version="1.1" id="Слой_1" xmlns="http://www.w3.org/2000/svg" xmlns:xlink="http://www.w3.org/1999/xlink" x="0px" y="0px"
	 viewBox="0 0 24 24" style="enable-background:new 0 0 24 24;" xml:space="preserve">
<g>
	<path d="M18,23H6c-1.7,0-3-1.3-3-3V4c0-1.7,1.3-3,3-3h12c1.7,0,3,1.3,3,3v16C21,21.7,19.7,23,18,23z M6,3C5.4,3,5,3.4,5,4v16
		c0,0.6,0.4,1,1,1h12c0.6,0,1-0.4,1-1V4c0-0.6-0.4-1-1-1H6z"/>
</g>
<g>
	<path d="M12,19c-0.6,0-1-0.4-1-1s0.4-1,1-1h0c0.6,0,1,0.4,1,1S12.6,19,12,19z"/>
</g>
</svg>
