<?xml version="1.0" encoding="utf-8"?>
<!-- Generator: Adobe Illustrator 26.1.0, SVG Export Plug-In . SVG Version: 6.00 Build 0)  -->
<svg version="1.1" id="Слой_1" xmlns="http://www.w3.org/2000/svg" xmlns:xlink="http://www.w3.org/1999/xlink" x="0px" y="0px"
	 viewBox="0 0 24 24" style="enable-background:new 0 0 24 24;" xml:space="preserve">
<g>
	<path d="M8,23c-0.1,0-0.3,0-0.4-0.1C7.2,22.8,7,22.4,7,22v-3H3c-0.6,0-1-0.4-1-1V2c0-0.6,0.4-1,1-1h18c0.6,0,1,0.4,1,1v12
		c0,0.3-0.1,0.5-0.3,0.7l-4,4C17.5,18.9,17.3,19,17,19h-4.6l-3.7,3.7C8.5,22.9,8.3,23,8,23z M4,17h4c0.6,0,1,0.4,1,1v1.6l2.3-2.3
		c0.2-0.2,0.4-0.3,0.7-0.3h4.6l3.4-3.4V3H4V17z M16,12c-0.6,0-1-0.4-1-1V7c0-0.6,0.4-1,1-1s1,0.4,1,1v4C17,11.6,16.6,12,16,12z
		 M11,12c-0.6,0-1-0.4-1-1V7c0-0.6,0.4-1,1-1s1,0.4,1,1v4C12,11.6,11.6,12,11,12z"/>
</g>
</svg>
